# xmcd CD database file
#
# Track frame offsets:
#	150
#	10982
#	31382
#	52915
#	74362
#	99922
#	119135
#	142032
#	159762
#	190310
#
# Disc length: 2977 seconds
#
# Revision: 0
# Processed by: cddbd v1.5.1PL0 Copyright (c) Steve Scherf et al.
# Submitted via: CDex 1.51
#
DISCID=840b9f0a
DTITLE=溝口　肇 - PRECIOUS
DYEAR=1989
DGENRE=Fusion
TTITLE0=Somewhere IN Time〜微笑みの育て方
TTITLE1=そら、そこに空〜Tou Are There
TTITLE2=MY PRECIOUS!〜困りもの宝もの
TTITLE3=真昼の月〜The Noon Moon
TTITLE4=熱のある夜〜A Missing Ship
TTITLE5=Toy For Two〜ふたりでオモチャを
TTITLE6=Planet Market〜天体市場
TTITLE7=薔薇科〜Lady Rose
TTITLE8=iまで何マイル〜How far is it to "i"?
TTITLE9=温かな素足〜Hushaby
EXTD=YEAR: 1989
EXTT0=
EXTT1=
EXTT2=
EXTT3=
EXTT4=
EXTT5=
EXTT6=
EXTT7=
EXTT8=
EXTT9=
PLAYORDER=
